<svg xmlns="http://www.w3.org/2000/svg" width="88.14" height="76.392" viewBox="0 0 88.14 76.392">
    <defs>
        <style>.a{fill:#222222;}</style>
    </defs>
    <path class="a"
          d="M29.367,21.79H15.678v5.46h7.293c-.975,2.613-3.354,4.212-6.981,4.212-5.3,0-8.58-3.393-8.58-8.034a7.848,7.848,0,0,1,8.034-8.19,7.806,7.806,0,0,1,6.669,3.2l5.3-3.042a13.965,13.965,0,0,0-11.934-6.24A14.158,14.158,0,0,0,1.17,23.389c0,7.839,6.162,14.157,14.742,14.157,7.644,0,13.455-5.07,13.455-13.416ZM40.677,9.7V37h6.24V9.7Zm37.05,0H57.447v6.006h7.02V37h6.24V15.706h7.02ZM17.16,57.7V68.152H8.58V57.7H2.34V85H8.58V74.158h8.58V85H23.4V57.7ZM46.215,85.546c6.006,0,10.53-3.51,10.53-9.36V57.7h-6.24V75.64c0,2.067-.975,3.822-4.29,3.822s-4.29-1.755-4.29-3.822V57.7h-6.24V76.186C35.685,82.036,40.209,85.546,46.215,85.546Zm39.741-14.7A6.834,6.834,0,0,0,88.335,65.5c0-4.719-3.861-7.8-8.619-7.8H69.03V85H80.5c4.875,0,8.814-3.159,8.814-8A7.049,7.049,0,0,0,85.956,70.843Zm-6.24-7.293a2.418,2.418,0,0,1,0,4.836H75.27V63.55Zm.78,15.6H75.27V73.924H80.5a2.613,2.613,0,0,1,0,5.226Z"
          transform="translate(-1.17 -9.154)"/>
</svg>
