<svg xmlns="http://www.w3.org/2000/svg" width="66.729" height="75.846" viewBox="0 0 66.729 75.846">
    <defs>
        <style>.a{fill:#222222;}</style>
    </defs>
    <path class="a"
          d="M19.266,22.843A6.834,6.834,0,0,0,21.645,17.5c0-4.719-3.861-7.8-8.619-7.8H2.34V37H13.806c4.875,0,8.814-3.159,8.814-7.995A7.049,7.049,0,0,0,19.266,22.843Zm-6.24-7.293a2.283,2.283,0,0,1,2.379,2.418,2.3,2.3,0,0,1-2.379,2.418H8.58V15.55Zm.78,15.6H8.58V25.924h5.226a2.467,2.467,0,0,1,2.574,2.613A2.467,2.467,0,0,1,13.806,31.15Zm25.974-.156V9.7H33.54V37H49.53V30.994ZM15.366,85.546a14.2,14.2,0,1,0,0-28.392,14.2,14.2,0,1,0,0,28.392Zm0-6.084a8.114,8.114,0,0,1,0-16.224,8.114,8.114,0,0,1,0,16.224ZM67.9,69.79H54.21v5.46H61.5c-.975,2.613-3.354,4.212-6.981,4.212-5.3,0-8.58-3.393-8.58-8.034a7.848,7.848,0,0,1,8.034-8.19,7.806,7.806,0,0,1,6.669,3.2l5.3-3.042a13.965,13.965,0,0,0-11.934-6.24A14.158,14.158,0,0,0,39.7,71.389c0,7.839,6.162,14.157,14.742,14.157,7.644,0,13.455-5.07,13.455-13.416Z"
          transform="translate(-1.17 -9.7)"/>
</svg>
