<svg xmlns="http://www.w3.org/2000/svg" width="111.735" height="75.846" viewBox="0 0 111.735 75.846">
    <defs>
        <style>.a{fill:#222222;}</style>
    </defs>
    <path class="a"
          d="M16.692,37H23.4L17.589,26.977A9,9,0,0,0,22.62,19.06,9.338,9.338,0,0,0,13.26,9.7H2.34V37H8.58V28.03h2.964ZM8.58,15.55h4.68a3.305,3.305,0,0,1,3.12,3.51,3.305,3.305,0,0,1-3.12,3.51H8.58ZM40.365,30.994V26.158h9.75V20.23h-9.75V15.706H51.09V9.7H34.125V37h17.16V30.994ZM72.15,37.546c5.928,0,10.14-3.12,10.14-8.385,0-5.772-4.641-7.215-8.775-8.463-4.251-1.287-4.914-2.145-4.914-3.393,0-1.092.975-2.067,2.925-2.067A4.784,4.784,0,0,1,76.245,18.4l5.265-3.081a10.589,10.589,0,0,0-9.984-6.162c-4.719,0-9.165,3.042-9.165,8.307,0,5.226,3.978,7.176,8.034,8.307,4.1,1.131,5.655,1.794,5.655,3.471,0,1.053-.741,2.223-3.705,2.223a5.718,5.718,0,0,1-5.733-3.783L61.23,30.8C62.751,34.816,66.417,37.546,72.15,37.546Zm31.395,0c6.006,0,10.53-3.51,10.53-9.36V9.7h-6.24V27.64c0,2.067-.975,3.822-4.29,3.822s-4.29-1.755-4.29-3.822V9.7h-6.24V28.186C93.015,34.036,97.539,37.546,103.545,37.546ZM29.64,57.7H23.4L15.99,69.829,8.58,57.7H2.34V85H8.58V69.127L15.639,80.71h.7L23.4,69.127V85h6.24ZM48.36,78.994V74.158h9.75V68.23H48.36V63.706H59.085V57.7H42.12V85H59.28V78.994Z"
          transform="translate(-2.34 -9.154)"/>
</svg>
