<svg xmlns="http://www.w3.org/2000/svg" width="431.64" height="570.52" viewBox="0 0 431.64 570.52">
<defs>
    <style>.a{fill:#222222;}</style>
</defs>
<path class="a"
      d="M70.92,2.52c23.04,0,43.2-11.34,54-29.16l-24.84-14.4c-5.4,9.72-16.38,15.48-29.16,15.48C48.6-25.56,34.2-40.5,34.2-63s14.4-37.44,36.72-37.44c12.78,0,23.58,5.76,29.16,15.48l24.84-14.4c-10.98-17.82-31.14-29.16-54-29.16C32.94-128.52,5.4-100.08,5.4-63S32.94,2.52,70.92,2.52ZM254.52,0h31.5L243.18-126H206.46L163.62,0h31.5l6.3-19.8h46.8ZM210.06-46.8l14.76-46.26L239.58-46.8ZM399.06,0h30.96L403.2-46.26c13.86-7.02,23.22-21.06,23.22-36.54a43.1,43.1,0,0,0-43.2-43.2h-50.4V0h28.8V-41.4H375.3ZM361.62-99h21.6c7.92,0,14.4,7.02,14.4,16.2s-6.48,16.2-14.4,16.2h-21.6ZM88.92,155.66A31.542,31.542,0,0,0,99.9,131c0-21.78-17.82-36-39.78-36H10.8V221H63.72c22.5,0,40.68-14.58,40.68-36.9A32.535,32.535,0,0,0,88.92,155.66ZM60.12,122c6.66,0,10.98,4.68,10.98,11.16s-4.5,11.16-10.98,11.16H39.6V122Zm3.6,72H39.6V169.88H63.72c7.2,0,11.88,5.04,11.88,12.06S70.92,194,63.72,194Zm151.2,29.52c36.18,0,65.52-28.44,65.52-65.52S251.1,92.48,214.92,92.48,149.4,120.92,149.4,158,178.74,223.52,214.92,223.52Zm0-28.08c-20.52,0-36.72-14.94-36.72-37.44s16.2-37.44,36.72-37.44S251.64,135.5,251.64,158,235.44,195.44,214.92,195.44ZM402.84,95v68.4L354.24,95h-21.6V221h28.8V152.6l48.6,68.4h21.6V95ZM113.4,316H80.64L56.7,364.6,32.76,316H0l42.3,77.58V442H71.1V393.58ZM189,414.28V316H160.2V442H234V414.28Z"
      transform="translate(0 128.52)"/>
</svg>
